<svg width="20" height="16" viewBox="0 0 20 16" fill="none" xmlns="http://www.w3.org/2000/svg">
<g clip-path="url(#clip0_14620_2961)">
<path d="M20 13.0001C20 13.5894 19.7659 14.1547 19.3491 14.5714C18.9324 14.9881 18.3671 15.2223 17.7778 15.2223H2.22222C1.63285 15.2223 1.06762 14.9881 0.650874 14.5714C0.234126 14.1547 0 13.5894 0 13.0001V3.00005C0 2.41068 0.234126 1.84545 0.650874 1.42871C1.06762 1.01196 1.63285 0.777832 2.22222 0.777832H17.7778C18.3671 0.777832 18.9324 1.01196 19.3491 1.42871C19.7659 1.84545 20 2.41068 20 3.00005V13.0001Z" fill="#E8112D"/>
<path d="M10.2637 4.65888C10.2715 4.07833 10.786 3.67888 10.8076 2.90555C11.176 3.36888 10.5671 4.23722 10.7832 4.74111C10.8821 4.16944 11.4515 3.855 11.5949 3.095C11.8865 3.61055 11.1487 4.37277 11.2832 4.90388C11.4699 4.35388 12.0821 4.13333 12.3421 3.40444C12.5493 3.95944 11.7021 4.59666 11.7521 5.14222C12.0221 4.62888 12.6615 4.50666 13.0326 3.82722C13.151 4.40777 12.2132 4.90444 12.1776 5.45166C12.5249 4.98666 13.176 4.96555 13.6482 4.35277C13.6743 4.945 12.6704 5.28833 12.5499 5.82333C12.9654 5.41833 13.611 5.49944 14.1732 4.96777C14.1071 5.55666 13.0621 5.73944 12.8582 6.24888C13.3326 5.91388 13.9582 6.095 14.5965 5.65833C14.4393 6.22944 13.3782 6.24666 13.0982 6.71777C13.6182 6.46111 14.2071 6.73777 14.9071 6.40611C14.6621 6.945 13.6104 6.79611 13.2599 7.21777C13.8143 7.04555 14.3537 7.41166 15.096 7.19333C14.7682 7.68777 13.7549 7.37555 13.3426 7.73722C13.9165 7.65389 14.3921 8.09888 15.1588 8C14.7593 8.43722 13.806 7.97055 13.3426 8.26277C13.9232 8.27055 14.3226 8.78555 15.0949 8.80611C14.6315 9.17611 13.7637 8.565 13.2599 8.78222C13.8326 8.88111 14.1465 9.45055 14.9071 9.59388C14.3915 9.88555 13.6287 9.14777 13.0971 9.28222C13.6471 9.46889 13.8687 10.0811 14.5965 10.3411C14.0421 10.5494 13.4054 9.70111 12.8582 9.75111C13.3726 10.0211 13.4954 10.6606 14.1732 11.0317C13.5926 11.15 13.0965 10.2122 12.5487 10.1767C13.0143 10.5239 13.0349 11.175 13.6482 11.6472C13.0565 11.6733 12.7115 10.6694 12.1776 10.5489C12.5826 10.9644 12.501 11.61 13.0326 12.1722C12.4432 12.1061 12.261 11.0611 11.7521 10.8572C12.0865 11.3317 11.9049 11.9572 12.3421 12.5956C11.7704 12.4383 11.7537 11.3772 11.2832 11.0972C11.5404 11.6172 11.2626 12.2061 11.5949 12.9061C11.0554 12.6611 11.2043 11.6094 10.7832 11.2589C10.9549 11.8133 10.5899 12.3528 10.8076 13.095C10.3132 12.7672 10.6254 11.7539 10.2637 11.3417C10.3471 11.9156 9.90208 12.3911 10.001 13.1578C9.56375 12.7583 10.0304 11.805 9.73819 11.3417C9.73042 11.9222 9.21597 12.3217 9.19431 13.0939C8.82486 12.6317 9.43486 11.7628 9.21819 11.2589C9.11986 11.8317 8.54986 12.1456 8.40708 12.9061C8.11542 12.3906 8.85319 11.6278 8.71819 11.0972C8.53153 11.6461 7.91931 11.8678 7.65931 12.5956C7.45153 12.0411 8.29986 11.4044 8.24986 10.8572C7.97931 11.3717 7.33986 11.4944 6.96931 12.1722C6.85097 11.5917 7.78875 11.0956 7.82431 10.5489C7.47708 11.0133 6.82653 11.0339 6.35431 11.6472C6.32764 11.0556 7.33208 10.7106 7.45264 10.1767C7.03708 10.5817 6.39097 10.5 5.82875 11.0317C5.89542 10.4422 6.94097 10.26 7.14375 9.75111C6.66986 10.0856 6.04431 9.90389 5.40597 10.3411C5.56375 9.76944 6.62486 9.75277 6.90486 9.28222C6.38431 9.53944 5.79542 9.26277 5.09597 9.59388C5.34153 9.05444 6.39208 9.20333 6.74264 8.78222C6.18819 8.95389 5.64986 8.58888 4.90708 8.80611C5.23375 8.31277 6.24819 8.62388 6.65986 8.26277C6.08542 8.34611 5.61097 7.90055 4.84375 8C5.24375 7.56333 6.19653 8.02944 6.65986 7.73722C6.07986 7.72944 5.68042 7.215 4.90708 7.19333C5.37042 6.82388 6.23875 7.43388 6.74264 7.21722C6.17042 7.11888 5.85653 6.54888 5.09653 6.40611C5.61208 6.11388 6.37431 6.85222 6.90542 6.71722C6.35542 6.53055 6.13486 5.91833 5.40597 5.65833C5.96097 5.45055 6.59819 6.29888 7.14375 6.24888C6.62986 5.97833 6.50819 5.33888 5.82875 4.96833C6.40931 4.85 6.90597 5.78777 7.45319 5.82333C6.98819 5.47611 6.96708 4.82555 6.35431 4.35333C6.94597 4.32722 7.28986 5.33111 7.82486 5.45166C7.41986 5.03611 7.50097 4.39 6.96931 3.82777C7.55764 3.89444 7.74097 4.94 8.25042 5.14277C7.91486 4.66888 8.09653 4.04388 7.65986 3.405C8.23097 3.56277 8.24819 4.62388 8.71931 4.90388C8.46264 4.38333 8.73931 3.79444 8.40764 3.09555C8.94653 3.34055 8.79764 4.39111 9.21931 4.74166C9.04708 4.18722 9.41319 3.64888 9.19486 2.90611C9.68931 3.23277 9.37708 4.24722 9.73875 4.65888C9.65486 4.08444 10.1004 3.61 10.0015 2.84277C10.4382 3.24222 9.97153 4.19555 10.2637 4.65888V4.65888Z" fill="#FFCC4D"/>
<path d="M9.99955 10.7255C10.3575 10.7255 10.7119 10.6549 11.0425 10.5178C11.3732 10.3808 11.6736 10.18 11.9266 9.92684C12.1797 9.67369 12.3804 9.37319 12.5173 9.04248C12.6542 8.71177 12.7246 8.35734 12.7245 7.99941C12.7245 7.64149 12.6539 7.28708 12.5169 6.95643C12.3798 6.62578 12.179 6.32536 11.9259 6.07232C11.6727 5.81928 11.3722 5.61858 11.0415 5.48167C10.7108 5.34477 10.3564 5.27434 9.99844 5.27441C9.27558 5.27456 8.58238 5.56186 8.07134 6.0731C7.5603 6.58435 7.27329 7.27766 7.27344 8.00052C7.27358 8.72339 7.56088 9.41658 8.07213 9.92762C8.58337 10.4387 9.27669 10.7257 9.99955 10.7255V10.7255Z" fill="#E8112D"/>
<path d="M10.0011 5.47266C10.6967 5.47266 11.3217 5.77044 11.7567 6.24655C11.0739 6.31544 10.495 6.47655 10.0011 6.72155C9.50722 6.47655 8.92778 6.31544 8.24611 6.24655C8.46854 6.00235 8.73957 5.80736 9.0418 5.67408C9.34404 5.54081 9.6708 5.4722 10.0011 5.47266ZM9.82167 6.81821C9.7672 6.84857 9.71348 6.88024 9.66056 6.91321C9.21778 6.67821 8.68722 6.52655 8.05667 6.48155C8.08543 6.44085 8.11563 6.4012 8.14722 6.36266C8.80222 6.42099 9.355 6.57766 9.82167 6.81821ZM10.1822 6.81821C10.2372 6.84877 10.2906 6.88044 10.3428 6.91321C10.7861 6.67821 11.3161 6.52655 11.9467 6.48155C11.9181 6.44086 11.8881 6.4012 11.8567 6.36266C11.2011 6.42099 10.6489 6.57766 10.1822 6.81821V6.81821ZM7.97722 6.60377C7.95202 6.64467 7.92812 6.68636 7.90556 6.72877C8.49222 6.7421 8.98445 6.87766 9.38889 7.10099C9.43113 7.06907 9.4741 7.03814 9.51778 7.00821C9.09556 6.77766 8.585 6.63377 7.97722 6.60377V6.60377ZM7.905 8.96933C7.70056 8.61766 7.625 8.28488 7.625 7.84933C7.625 7.49377 7.70167 7.15821 7.84056 6.85655C8.40833 6.85266 8.88333 6.97655 9.27111 7.1921C8.69722 7.66266 8.23111 8.21377 7.905 8.96933V8.96933ZM9.03278 10.0182C8.92611 9.9771 8.81 9.86099 8.71111 9.80544C8.76722 8.91266 9.185 8.17821 9.76722 7.56044C9.81056 7.60266 9.85222 7.64488 9.89222 7.68988C9.35111 8.32266 9.00333 9.14377 9.03278 10.0182ZM12.0267 6.60377C12.0517 6.64433 12.0756 6.68599 12.0983 6.72877C11.5111 6.7421 11.0189 6.87766 10.615 7.10099C10.5727 7.06894 10.5295 7.03801 10.4856 7.00821C10.9083 6.77766 11.4183 6.63377 12.0267 6.60377V6.60377Z" fill="#FFCC4D"/>
<path d="M12.0974 8.96987C12.3013 8.6182 12.3774 8.28487 12.3774 7.84931C12.3774 7.49376 12.3002 7.1582 12.1613 6.85653C11.594 6.85265 11.1185 6.97653 10.7307 7.19209C11.3057 7.66264 11.7724 8.21431 12.0974 8.96987V8.96987ZM10.0007 7.8932C10.4268 8.57876 10.5085 9.32876 10.4852 10.176C10.3002 10.2215 10.2002 10.226 10.0007 10.226C9.80127 10.226 9.70127 10.2215 9.51627 10.176C9.49293 9.37209 9.5746 8.60487 10.0007 7.8932ZM10.9668 10.0182C11.0729 9.97709 11.1924 9.89542 11.2913 9.84042C11.2352 8.94764 10.8168 8.1782 10.2346 7.56098C10.1917 7.60275 10.1502 7.64593 10.1102 7.69042C10.6524 8.32265 10.9963 9.14376 10.9668 10.0182V10.0182ZM9.6246 7.43376C9.57211 7.39036 9.5178 7.34921 9.46182 7.31042C8.85905 7.84487 8.41127 8.46598 8.16016 9.30764C8.25293 9.41376 8.25127 9.49209 8.36127 9.57987C8.51682 8.69487 9.02071 8.01765 9.6246 7.43376V7.43376ZM10.3774 7.43376C10.4279 7.39209 10.4852 7.3482 10.5402 7.31042C11.1429 7.84487 11.589 8.47709 11.8407 9.31931C11.7474 9.42542 11.734 9.49264 11.6229 9.58042C11.4679 8.69487 10.9813 8.01765 10.3774 7.43376V7.43376ZM10.0007 6.91876C10.0307 6.93653 10.1335 7.00098 10.1596 7.0182C10.119 7.0432 10.0263 7.10598 10.0007 7.1232C9.94859 7.08694 9.89561 7.05193 9.84182 7.0182C9.86793 7.00098 9.97071 6.93598 10.0007 6.91876ZM9.70016 7.11709C9.6596 7.14764 9.59793 7.19487 9.5746 7.21487C9.63293 7.2532 9.71127 7.31265 9.73627 7.33209C9.76682 7.30598 9.82682 7.25265 9.86071 7.2282C9.80881 7.18887 9.75525 7.1518 9.70016 7.11709V7.11709ZM10.3013 7.11709C10.3418 7.14764 10.4035 7.19487 10.4268 7.21487C10.3717 7.25216 10.3177 7.29126 10.2652 7.33209C10.2352 7.30598 10.1746 7.25265 10.1407 7.2282C10.1824 7.19765 10.2702 7.13431 10.3013 7.11709V7.11709ZM10.0007 7.33876C10.0268 7.36098 10.104 7.42931 10.1246 7.44987C10.0814 7.48789 10.0401 7.52793 10.0007 7.56987C9.96167 7.5278 9.9205 7.48775 9.87738 7.44987C9.89738 7.42931 9.97516 7.36153 10.0007 7.33876Z" fill="#FFCC4D"/>
</g>
<defs>
<clipPath id="clip0_14620_2961">
<rect width="20" height="15" fill="white" transform="translate(0 0.5)"/>
</clipPath>
</defs>
</svg>
