<svg width="32" height="32" viewBox="0 0 32 32" fill="none" xmlns="http://www.w3.org/2000/svg">
<path d="M24.4451 3.3335H7.55621C5.22807 3.3335 3.33398 5.2929 3.33398 7.70131V18.1841C3.33398 20.5925 5.22807 22.5519 7.55621 22.5519H9.2451V27.7933C9.2451 28.1466 9.45072 28.465 9.76612 28.6004C9.87083 28.645 9.98061 28.6668 10.0895 28.6668C10.3095 28.6668 10.5248 28.5782 10.6866 28.4109L16.3502 22.5519H24.4451C26.7732 22.5519 28.6673 20.5925 28.6673 18.1841V7.70131C28.6673 5.2929 26.7732 3.3335 24.4451 3.3335ZM19.5895 13.6646H9.2451C8.77896 13.6646 8.40065 13.4249 8.40065 12.9427C8.40065 12.4605 8.77896 12.2208 9.2451 12.2208H19.5895C20.0557 12.2208 20.434 12.4605 20.434 12.9427C20.434 13.4249 20.0557 13.6646 19.5895 13.6646ZM22.7562 10.1703H9.2451C8.77896 10.1703 8.40065 9.93065 8.40065 9.44844C8.40065 8.96623 8.77896 8.72657 9.2451 8.72657H22.7562C23.2223 8.72657 23.6006 8.96623 23.6006 9.44844C23.6006 9.93065 23.2223 10.1703 22.7562 10.1703Z" fill="#2E2E2C"/>
</svg>
