<svg width="100" height="44" viewBox="0 0 100 44" fill="none" xmlns="http://www.w3.org/2000/svg">
<path d="M95.8485 34.4288H96.5769V39.6697H95.8485V34.4288ZM97.6933 38.9889C98.0646 38.9889 98.336 38.9196 98.505 38.7763C98.6764 38.6354 98.7597 38.4347 98.7597 38.1791V38.1672C98.7597 37.9904 98.7288 37.8375 98.6692 37.7085C98.6073 37.5819 98.5121 37.484 98.3788 37.4147C98.2455 37.3478 98.0789 37.312 97.8718 37.312H96.2769V36.6479H97.8718C98.1408 36.6479 98.3455 36.5834 98.4836 36.4568C98.6216 36.3278 98.6907 36.1415 98.6907 35.8907C98.6907 35.6279 98.6145 35.4321 98.4598 35.3031C98.3074 35.1741 98.0765 35.1096 97.7694 35.1096H96.2746V34.4288H97.9028C98.2408 34.4288 98.524 34.4861 98.7502 34.6032C98.9787 34.7178 99.1477 34.8803 99.262 35.0929C99.3738 35.3055 99.431 35.5563 99.431 35.8501C99.431 36.0293 99.3976 36.1989 99.3262 36.3565C99.2572 36.5142 99.1501 36.6479 99.0096 36.7602C98.8668 36.8725 98.6907 36.9465 98.4788 36.9848C98.6907 37.0158 98.8716 37.0922 99.0239 37.2093C99.1763 37.3287 99.2953 37.4768 99.3762 37.6536C99.4595 37.8328 99.5 38.0239 99.5 38.2317V38.2436C99.5 38.5255 99.4381 38.7763 99.3119 38.9937C99.1882 39.2111 99.0096 39.3783 98.7764 39.4953C98.5455 39.6124 98.2741 39.6721 97.9646 39.6721H96.2769V38.9889H97.6933ZM85.7437 39.7246C85.3581 39.7246 85.0272 39.6482 84.7534 39.4953C84.4797 39.3424 84.2702 39.1203 84.1274 38.8289C83.9822 38.5374 83.9108 38.1863 83.9108 37.7754V34.4288H84.6439V37.7993C84.6439 38.1815 84.7415 38.4777 84.932 38.6855C85.1224 38.8957 85.3938 38.9985 85.7437 38.9985C86.096 38.9985 86.3674 38.8934 86.5602 38.6855C86.753 38.4753 86.8506 38.1815 86.8506 37.7993V34.4288H87.5837V37.7754C87.5837 38.1863 87.5123 38.5374 87.3671 38.8289C87.2243 39.1203 87.0148 39.3424 86.7387 39.4953C86.4626 39.6482 86.1317 39.7246 85.7437 39.7246ZM72.3302 36.7387H75.2295V37.4386H72.3302V36.7387ZM71.8731 34.4288H72.6063V39.6697H71.8731V34.4288ZM74.8415 34.4288H75.5746V39.6697H74.8415V34.4288ZM58.5215 34.4288H62.2063V35.1287H58.5215V34.4288ZM59.9973 34.8588H60.7305V39.6721H59.9973V34.8588ZM50.5424 39.6697H49.8092V34.4288H50.5424V39.6697Z" fill="#B1B2B3"/>
<path d="M91.6756 17.0746L96.7268 24.752V17.0005C96.7268 16.4965 96.8363 16.1215 97.0506 15.8706C97.2648 15.6198 97.5552 15.4908 97.9218 15.4908C98.2955 15.4908 98.5955 15.615 98.8121 15.8659C99.0287 16.1167 99.1382 16.4965 99.1382 17.0005V27.2387C99.1382 28.3829 98.6669 28.9514 97.7242 28.9514C97.4886 28.9514 97.2767 28.918 97.0863 28.8487C96.8982 28.7818 96.7197 28.6719 96.5578 28.5262C96.3912 28.3781 96.2412 28.2037 96.0984 28.0055C95.9556 27.8072 95.8152 27.6041 95.6723 27.3987L90.7449 19.8192V27.4417C90.7449 27.9386 90.6307 28.316 90.3998 28.5692C90.1665 28.8248 89.8713 28.9514 89.5119 28.9514C89.1405 28.9514 88.8406 28.8248 88.6168 28.5668C88.3907 28.3088 88.2788 27.9338 88.2788 27.4417V17.4018C88.2788 16.9742 88.3264 16.6398 88.4216 16.3985C88.5335 16.131 88.7216 15.9136 88.981 15.744C89.2405 15.5768 89.5214 15.4932 89.8213 15.4932C90.0593 15.4932 90.2617 15.5314 90.4283 15.6079C90.5973 15.6867 90.7449 15.7894 90.8735 15.9208C90.9996 16.0522 91.1305 16.217 91.2638 16.4272C91.3948 16.6326 91.5328 16.8476 91.6756 17.0746ZM83.33 22.1865C83.33 21.2334 83.1753 20.4069 82.8706 19.707C82.5635 19.0094 82.1255 18.4815 81.5566 18.1208C80.9877 17.7625 80.3331 17.5834 79.5951 17.5834C79.0714 17.5834 78.5858 17.6837 78.1407 17.8796C77.6932 18.0802 77.3099 18.3669 76.9886 18.7467C76.6672 19.1265 76.4149 19.6114 76.2269 20.199C76.0436 20.7915 75.9484 21.4507 75.9484 22.1841C75.9484 22.927 76.0412 23.5934 76.2269 24.1954C76.4149 24.7926 76.6768 25.2895 77.0148 25.6836C77.3528 26.0777 77.7432 26.3716 78.1812 26.565C78.6216 26.7633 79.1024 26.8589 79.6285 26.8589C80.3021 26.8589 80.9186 26.6893 81.4828 26.3524C82.0446 26.0156 82.4921 25.4949 82.8277 24.7878C83.1633 24.0879 83.33 23.216 83.33 22.1865ZM79.5951 15.4908C80.9424 15.4908 82.0969 15.7631 83.061 16.3126C84.025 16.8572 84.7558 17.6383 85.251 18.6464C85.7461 19.6568 85.9936 20.8416 85.9936 22.2032C85.9936 23.2089 85.858 24.1261 85.5866 24.9479C85.3152 25.772 84.9106 26.4838 84.3654 27.0882C83.8227 27.6925 83.1562 28.1536 82.3659 28.4736C81.5732 28.7914 80.6711 28.9538 79.6499 28.9538C78.6358 28.9538 77.7241 28.789 76.9243 28.4593C76.1198 28.1321 75.4532 27.6686 74.9153 27.0715C74.3773 26.4743 73.9726 25.7553 73.6965 24.912C73.4228 24.0712 73.2847 23.1635 73.2847 22.1865C73.2847 21.1856 73.4275 20.2707 73.7132 19.4323C74.0012 18.5986 74.413 17.8891 74.9581 17.3015C75.4985 16.7163 76.1602 16.2672 76.941 15.959C77.7194 15.6461 78.6049 15.4908 79.5951 15.4908ZM70.3449 17.7482H64.4225V20.9491H69.876C70.2783 20.9491 70.5758 21.0399 70.7734 21.219C70.9733 21.3982 71.0686 21.6371 71.0686 21.9309C71.0686 22.2247 70.971 22.4683 70.7781 22.6523C70.583 22.8362 70.283 22.9318 69.8736 22.9318H64.4201V26.6439H70.5449C70.9591 26.6439 71.2709 26.7418 71.478 26.9329C71.6898 27.124 71.7946 27.382 71.7946 27.6997C71.7946 28.0055 71.6898 28.2587 71.478 28.4498C71.2685 28.6409 70.9591 28.7388 70.5449 28.7388H63.4013C62.83 28.7388 62.4182 28.6122 62.1683 28.3566C61.9183 28.101 61.7898 27.6901 61.7898 27.1216V17.3278C61.7898 16.948 61.8469 16.6398 61.9588 16.4009C62.0707 16.1621 62.2468 15.9853 62.4848 15.8754C62.7229 15.7655 63.0276 15.7106 63.4013 15.7106H70.3425C70.7615 15.7106 71.0733 15.8038 71.2756 15.9901C71.478 16.1788 71.5803 16.4248 71.5803 16.7234C71.5803 17.0316 71.478 17.2824 71.2756 17.4687C71.0757 17.6526 70.7639 17.7482 70.3449 17.7482ZM49.7426 25.6932L56.4101 17.6909H50.6805C50.2782 17.6909 49.9759 17.6025 49.7735 17.4233C49.5688 17.2442 49.4688 17.0101 49.4688 16.721C49.4688 16.42 49.5688 16.1764 49.7735 15.9877C49.9759 15.8038 50.2782 15.7082 50.6805 15.7082H58.0644C59.019 15.7082 59.4975 16.1573 59.4975 17.0507C59.4975 17.4783 59.4189 17.8175 59.2594 18.0731C59.0999 18.3287 58.7786 18.7395 58.2953 19.3104L52.0611 26.7514H58.9309C59.3356 26.7514 59.6403 26.8374 59.8402 27.007C60.0426 27.1742 60.1425 27.4107 60.1425 27.714C60.1425 28.027 60.0426 28.2754 59.8402 28.4593C59.6403 28.6432 59.3356 28.7364 58.9309 28.7364H50.5019C49.9306 28.7364 49.4998 28.605 49.2118 28.3494C48.9213 28.0915 48.7761 27.7499 48.7761 27.3151C48.7761 27.167 48.7999 27.0308 48.8452 26.9066C48.8928 26.7824 48.9571 26.663 49.0356 26.5555C49.1165 26.4456 49.226 26.3071 49.3689 26.1398C49.5117 25.9679 49.6355 25.8174 49.7426 25.6932Z" fill="#006EA1"/>
<path fill-rule="evenodd" clip-rule="evenodd" d="M19.7067 12.8274C21.6063 14.7336 21.6063 17.8222 19.7067 19.7261C17.8072 21.6323 14.7293 21.6323 12.8322 19.7261C10.9326 17.8198 10.9326 14.7312 12.8322 12.8274C14.7317 10.9212 17.8096 10.9212 19.7067 12.8274Z" fill="#009EE3"/>
<path fill-rule="evenodd" clip-rule="evenodd" d="M30.9755 24.1333C32.8751 26.0395 32.8751 29.1282 30.9755 31.032C29.076 32.9382 25.9981 32.9382 24.101 31.032C22.2014 29.1258 22.2014 26.0371 24.101 24.1333C25.9981 22.2295 29.076 22.2295 30.9755 24.1333Z" fill="#009EE3"/>
<path fill-rule="evenodd" clip-rule="evenodd" d="M30.7994 12.8775C32.6989 14.7838 32.6989 17.8724 30.7994 19.7762C28.8998 21.6824 25.822 21.6824 23.9248 19.7762C22.0253 17.87 22.0253 14.7814 23.9248 12.8775C25.822 10.9737 28.8998 10.9737 30.7994 12.8775Z" fill="#006EA1"/>
<path fill-rule="evenodd" clip-rule="evenodd" d="M19.533 24.1835C21.4325 26.0897 21.4325 29.1783 19.533 31.0822C17.6334 32.986 14.5556 32.9884 12.6584 31.0822C10.7588 29.1759 10.7588 26.0873 12.6584 24.1835C14.5556 22.2796 17.6334 22.2796 19.533 24.1835Z" fill="#006EA1"/>
<path fill-rule="evenodd" clip-rule="evenodd" d="M7.71431 12.868C9.30918 13.0662 10.3732 15.0609 10.0947 17.3206C9.81382 19.5804 8.29513 21.2501 6.70026 21.0518C5.1054 20.8536 4.04136 18.859 4.31986 16.5992C4.60075 14.3394 6.11944 12.6673 7.71431 12.868Z" fill="#009EE3"/>
<path fill-rule="evenodd" clip-rule="evenodd" d="M12.7679 36.2705C12.9655 34.6701 14.9531 33.6023 17.205 33.8818C19.4568 34.1636 21.1207 35.6877 20.9231 37.2881C20.7256 38.8886 18.7379 39.9563 16.4861 39.6769C14.2342 39.3974 12.5703 37.871 12.7679 36.2705Z" fill="#006EA1"/>
<path fill-rule="evenodd" clip-rule="evenodd" d="M6.44556 22.9652C8.03091 22.6953 9.62101 24.2981 10.0019 26.5435C10.3804 28.789 9.4044 30.8266 7.81905 31.0965C6.23371 31.3664 4.6436 29.7636 4.26274 27.5182C3.88426 25.2751 4.86022 23.2351 6.44556 22.9652Z" fill="#009EE3"/>
<path fill-rule="evenodd" clip-rule="evenodd" d="M22.906 37.4697C22.637 35.8788 24.2343 34.2831 26.4718 33.9009C28.7094 33.5211 30.7399 34.5005 31.0089 36.0914C31.2778 37.6823 29.6806 39.2779 27.443 39.6601C25.2078 40.04 23.175 39.0606 22.906 37.4697Z" fill="#006EA1"/>
<path fill-rule="evenodd" clip-rule="evenodd" d="M2.41793 15.7321C3.17252 15.8874 3.57242 17.1773 3.31058 18.6129C3.04873 20.0485 2.2275 21.0877 1.47291 20.9324C0.718327 20.7771 0.31842 19.4872 0.580264 18.0516C0.842107 16.6159 1.66334 15.5768 2.41793 15.7321Z" fill="#009EE3"/>
<path fill-rule="evenodd" clip-rule="evenodd" d="M15.6482 41.5616C15.8029 40.8044 17.0883 40.403 18.5189 40.6658C19.9495 40.9286 20.985 41.7527 20.8303 42.5099C20.6756 43.2671 19.3902 43.6685 17.9595 43.4057C16.5289 43.1429 15.4934 42.3188 15.6482 41.5616Z" fill="#009EE3"/>
<path fill-rule="evenodd" clip-rule="evenodd" d="M1.48958 23.1253C2.24892 22.9963 3.08444 24.0545 3.35819 25.4877C3.63193 26.921 3.23679 28.187 2.47744 28.316C1.71809 28.445 0.882574 27.3868 0.608829 25.9535C0.335083 24.5203 0.730229 23.2542 1.48958 23.1253Z" fill="#009EE3"/>
<path fill-rule="evenodd" clip-rule="evenodd" d="M22.9798 42.529C22.8512 41.767 23.9058 40.9286 25.334 40.6539C26.7622 40.3792 28.0238 40.7757 28.1524 41.5377C28.2809 42.2997 27.2264 43.1382 25.7982 43.4129C24.3699 43.6876 23.1083 43.291 22.9798 42.529Z" fill="#009EE3"/>
<path fill-rule="evenodd" clip-rule="evenodd" d="M6.09325 33.6644C6.7312 32.986 8.31416 33.4781 9.6329 34.7608C10.9516 36.046 11.5039 37.6345 10.8683 38.3129C10.2304 38.9913 8.64742 38.4992 7.32868 37.2165C6.00994 35.9337 5.45769 34.3428 6.09325 33.6644Z" fill="#006EA1"/>
<path fill-rule="evenodd" clip-rule="evenodd" d="M33.0322 38.3869C32.3562 37.7468 32.8465 36.1582 34.1248 34.8349C35.4055 33.5115 36.9884 32.9573 37.6645 33.5951C38.3405 34.2353 37.8501 35.8238 36.5719 37.1472C35.2936 38.4706 33.7082 39.0247 33.0322 38.3869Z" fill="#006EA1"/>
<path fill-rule="evenodd" clip-rule="evenodd" d="M36.1243 31.0845C34.5295 30.8887 33.4607 28.8965 33.7368 26.6367C34.0129 24.377 35.5292 22.7024 37.1241 22.8983C38.719 23.0942 39.7878 25.0864 39.5116 27.3462C39.2355 29.6059 37.7192 31.2804 36.1243 31.0845Z" fill="#009EE3"/>
<path fill-rule="evenodd" clip-rule="evenodd" d="M30.9875 7.72741C30.7923 9.32787 28.807 10.4004 26.5552 10.1233C24.3033 9.84622 22.6346 8.32459 22.8298 6.72414C23.025 5.12368 25.0103 4.05113 27.2621 4.32823C29.514 4.60532 31.1827 6.12695 30.9875 7.72741Z" fill="#006EA1"/>
<path fill-rule="evenodd" clip-rule="evenodd" d="M37.3169 21.0399C35.734 21.3122 34.1391 19.7141 33.7558 17.4687C33.3726 15.2233 34.3462 13.1833 35.9291 12.911C37.5121 12.6387 39.107 14.2367 39.4902 16.4822C39.8735 18.7252 38.9023 20.7676 37.3169 21.0399Z" fill="#009EE3"/>
<path fill-rule="evenodd" clip-rule="evenodd" d="M20.9207 6.47332C21.1921 8.06183 19.5996 9.66229 17.362 10.0469C15.1245 10.4315 13.0916 9.45447 12.8203 7.86596C12.5489 6.27744 14.1414 4.67698 16.3789 4.2924C18.6165 3.90781 20.6494 4.88242 20.9207 6.47332Z" fill="#006EA1"/>
<path fill-rule="evenodd" clip-rule="evenodd" d="M41.3207 28.3041C40.5662 28.1512 40.1639 26.8612 40.421 25.4256C40.678 23.99 41.4993 22.9485 42.2539 23.1038C43.0084 23.2566 43.4107 24.5466 43.1536 25.9822C42.8966 27.4178 42.0753 28.4593 41.3207 28.3041Z" fill="#009EE3"/>
<path fill-rule="evenodd" clip-rule="evenodd" d="M28.1238 2.41723C27.9715 3.17446 26.6861 3.57816 25.2554 3.32017C23.8248 3.06219 22.787 2.23807 22.9417 1.48084C23.094 0.723607 24.3795 0.319909 25.8101 0.577894C27.2407 0.835878 28.2762 1.66 28.1238 2.41723Z" fill="#009EE3"/>
<path fill-rule="evenodd" clip-rule="evenodd" d="M42.2872 20.8559C41.5278 20.9849 40.6899 19.9291 40.4138 18.4959C40.1377 17.0626 40.5304 15.7966 41.2898 15.6652C42.0491 15.5362 42.887 16.592 43.1632 18.0253C43.4369 19.4609 43.0465 20.727 42.2872 20.8559Z" fill="#009EE3"/>
<path fill-rule="evenodd" clip-rule="evenodd" d="M20.7517 1.49995C20.8803 2.26196 19.8281 3.1028 18.3999 3.3799C16.9717 3.65699 15.7101 3.26285 15.5791 2.50084C15.4506 1.73883 16.5027 0.89799 17.931 0.620896C19.3616 0.34619 20.6232 0.737944 20.7517 1.49995Z" fill="#009EE3"/>
<path fill-rule="evenodd" clip-rule="evenodd" d="M33.4702 6.19383C34.1081 5.51543 35.6911 6.00751 37.0098 7.29027C38.3286 8.57541 38.8808 10.1639 38.2453 10.8423C37.6073 11.5207 36.0244 11.0287 34.7056 9.7459C33.3869 8.46075 32.8322 6.87224 33.4702 6.19383Z" fill="#006EA1"/>
<path fill-rule="evenodd" clip-rule="evenodd" d="M5.65765 10.914C4.98162 10.2738 5.47198 8.68529 6.75025 7.36193C8.0309 6.03856 9.61387 5.48437 10.2899 6.12217C10.9659 6.76235 10.4756 8.35087 9.1973 9.67423C7.91664 10.9976 6.3313 11.5542 5.65765 10.914Z" fill="#006EA1"/>
</svg>
